<svg xmlns="http://www.w3.org/2000/svg" version="1.1" xmlns:xlink="http://www.w3.org/1999/xlink" xmlns:svgjs="http://svgjs.com/svgjs" width="1440" height="1000" preserveAspectRatio="none" viewBox="0 0 1440 1000"><g mask="url(&quot;#SvgjsMask1064&quot;)" fill="none"><path d="M182.26111646958648 548.8524314368195L163.45476756834563 333.8948798716592-51.50278399681466 352.7012287729001-32.696435095573804 567.6587803380604z" fill="rgba(15, 16, 16, 0.13)" class="triangle-float2"></path><path d="M127.03171118253572-40.705959628687815L-20.921922978856045 55.37625383688661 75.16029048671838 203.32988799827837 223.11392464811013 107.24767453270394z" fill="rgba(15, 16, 16, 0.13)" class="triangle-float3"></path><path d="M281.2126376584253 292.304788028975L125.6373444551914 325.37333743306 158.7058938592764 480.9486306362939 314.2811870625103 447.8800812322089z" fill="rgba(15, 16, 16, 0.13)" class="triangle-float3"></path><path d="M1346.82442881497 573.3386852759842L1192.565566234132 576.0312837380857 1195.2581646962335 730.2901463189236 1349.5170272770713 727.5975478568221z" fill="rgba(15, 16, 16, 0.13)" class="triangle-float1"></path><path d="M639.7238652778314 348.7104734335212L478.81279733427004 218.40725984846839 348.50958374921726 379.31832779202966 509.4206516927785 509.6215413770825z" fill="rgba(15, 16, 16, 0.13)" class="triangle-float2"></path><path d="M21.395847630868023 1037.4582321861349L190.70864023805825 1109.3272487100069 262.5776567619302 940.0144561028166 93.26486415473997 868.1454395789447z" fill="rgba(15, 16, 16, 0.13)" class="triangle-float1"></path><path d="M1064.3074414142616 497.31342335872955L1225.6133696559746 623.3394265643041 1351.6393728615492 462.03349832259096 1190.333444619836 336.00749511701645z" fill="rgba(15, 16, 16, 0.13)" class="triangle-float1"></path><path d="M1164.2452300120563 745.6653493333944L1351.3536451849864 960.9089588735253 1566.5972547251172 773.8005437005952 1379.488839552187 558.5569341604643z" fill="rgba(15, 16, 16, 0.13)" class="triangle-float3"></path><path d="M812.9096225776458 1060.8351410134621L881.2732657389981 907.2878844749991 727.7260092005351 838.9242413136469 659.3623660391828 992.4714978521098z" fill="rgba(15, 16, 16, 0.13)" class="triangle-float2"></path><path d="M433.7528005966768 485.1427111300851L498.64095817892905 324.53888535584764 338.0371324046916 259.6507277735954 273.14897482243936 420.25455354783287z" fill="rgba(15, 16, 16, 0.13)" class="triangle-float3"></path><path d="M975.8699693355785 278.2997620710193L997.4754121998293 102.33755065474938 821.5132007835593 80.73210779049856 799.9077579193086 256.69431920676845z" fill="rgba(15, 16, 16, 0.13)" class="triangle-float3"></path><path d="M1574.2647512835574 537.9545736987476L1483.9019483602544 289.68481310834466 1235.6321877698515 380.04761603164764 1325.9949906931545 628.3173766220506z" fill="rgba(15, 16, 16, 0.13)" class="triangle-float3"></path><path d="M419.936388583596-6.000262619782312L170.36193921598274 132.3411136760265 308.7033155117916 381.9155630436398 558.2777648794048 243.57418674783094z" fill="rgba(15, 16, 16, 0.13)" class="triangle-float2"></path><path d="M1054.9409918886436 155.39109751346356L855.1394082010098 252.84084112499178 952.589151812538 452.64242481262556 1152.3907355001718 355.19268120109734z" fill="rgba(15, 16, 16, 0.13)" class="triangle-float2"></path></g><defs><mask id="SvgjsMask1064"><rect width="1440" height="1000" fill="#ffffff"></rect></mask><style>
            @keyframes float1 {
                0%{transform: translate(0, 0)}
                50%{transform: translate(-10px, 0)}
                100%{transform: translate(0, 0)}
            }

            .triangle-float1 {
                animation: float1 5s infinite;
            }

            @keyframes float2 {
                0%{transform: translate(0, 0)}
                50%{transform: translate(-5px, -5px)}
                100%{transform: translate(0, 0)}
            }

            .triangle-float2 {
                animation: float2 4s infinite;
            }

            @keyframes float3 {
                0%{transform: translate(0, 0)}
                50%{transform: translate(0, -10px)}
                100%{transform: translate(0, 0)}
            }

            .triangle-float3 {
                animation: float3 6s infinite;
            }
        </style></defs></svg>